# xmcd
#
# Track frame offsets: 
#        150
#        15540
#        33011
#        51673
#        65715
#        76074
#        90312
#        104434
#        122690
#        138297
#        155920
#        179035
#        187413
#        208992
#        228557
#        242726
#        259564
#        272346
#        291323
#        309160
#        325077
#
# Disc length: 4440 seconds
#
# Revision: 0
# Processed by: cddbd v1.5.2PL0 Copyright (c) Steve Scherf et al.
# Submitted via: ExactAudioCopyFreeDBPlugin 1.0
#
DISCID=31115615
DTITLE=Tom Waits - Alternativa and Undergroung
DYEAR=2000
DGENRE=Alternative
TTITLE0=New Coast
TTITLE1=Barber
TTITLE2=Cold Call Down
TTITLE3=Ice Cream Man
TTITLE4=Down
TTITLE5=Swordfish
TTITLE6=Diamonds
TTITLE7=The One
TTITLE8=Straight The Top
TTITLE9=Downtown Train
TTITLE10=Drunk On
TTITLE11=Frank's Wild Years
TTITLE12=Heartattack and Wine
TTITLE13=Eggs
TTITLE14=In The Neighbornhood
TTITLE15=Lucky Day
TTITLE16=Nobody
TTITLE17=In Shades
TTITLE18=Time
TTITLE19=Why Down In The Hole
TTITLE20=Cemetery Polka
EXTD=
EXTT0=
EXTT1=
EXTT2=
EXTT3=
EXTT4=
EXTT5=
EXTT6=
EXTT7=
EXTT8=
EXTT9=
EXTT10=
EXTT11=
EXTT12=
EXTT13=
EXTT14=
EXTT15=
EXTT16=
EXTT17=
EXTT18=
EXTT19=
EXTT20=
PLAYORDER=
